{
    "asset" : {
        "generator" : "Khronos glTF Blender I/O v1.1.46",
        "version" : "2.0"
    },
    "scene" : 0,
    "scenes" : [
        {
            "name" : "Scene",
            "nodes" : [
                0,
                1,
                2,
                3
            ]
        }
    ],
    "nodes" : [
        {
            "mesh" : 0,
            "name" : "Cube"
        },
        {
            "name" : "Light",
            "rotation" : [
                0.16907575726509094,
                0.7558803558349609,
                -0.27217137813568115,
                0.570947527885437
            ],
            "translation" : [
                4.076245307922363,
                5.903861999511719,
                -1.0054539442062378
            ]
        },
        {
            "name" : "Camera",
            "rotation" : [
                0.483536034822464,
                0.33687159419059753,
                -0.20870360732078552,
                0.7804827094078064
            ],
            "translation" : [
                7.358891487121582,
                4.958309173583984,
                6.925790786743164
            ]
        },
        {
            "mesh" : 1,
            "name" : "Plane",
            "translation" : [
                0.20925569534301758,
                -1.8837233781814575,
                1.650526762008667
            ]
        }
    ],
    "materials" : [
        {
            "doubleSided" : true,
            "emissiveFactor" : [
                0,
                0,
                0
            ],
            "name" : "Material",
            "pbrMetallicRoughness" : {
                "baseColorFactor" : [
                    0.800000011920929,
                    0.800000011920929,
                    0.800000011920929,
                    1
                ],
                "metallicFactor" : 0,
                "roughnessFactor" : 0.4000000059604645
            }
        }
    ],
    "meshes" : [
        {
            "name" : "Cube",
            "primitives" : [
                {
                    "attributes" : {
                        "POSITION" : 0,
                        "NORMAL" : 1
                    },
                    "indices" : 2,
                    "material" : 0
                }
            ]
        },
        {
            "name" : "Plane",
            "primitives" : [
                {
                    "attributes" : {
                        "POSITION" : 3,
                        "NORMAL" : 4,
                        "TEXCOORD_0" : 5
                    },
                    "indices" : 6
                }
            ]
        }
    ],
    "accessors" : [
        {
            "bufferView" : 0,
            "componentType" : 5126,
            "count" : 33032,
            "max" : [
                1.666157841682434,
                1.814662218093872,
                3.018617868423462
            ],
            "min" : [
                -1.6657438278198242,
                -3.2679405212402344,
                -1.6814329624176025
            ],
            "type" : "VEC3"
        },
        {
            "bufferView" : 1,
            "componentType" : 5126,
            "count" : 33032,
            "type" : "VEC3"
        },
        {
            "bufferView" : 2,
            "componentType" : 5123,
            "count" : 49548,
            "type" : "SCALAR"
        },
        {
            "bufferView" : 3,
            "componentType" : 5126,
            "count" : 24,
            "max" : [
                1.4094183444976807,
                1.7968215942382812,
                0.24297404289245605
            ],
            "min" : [
                -1.2535545825958252,
                0.11978495121002197,
                -1.1247014999389648
            ],
            "type" : "VEC3"
        },
        {
            "bufferView" : 4,
            "componentType" : 5126,
            "count" : 24,
            "type" : "VEC3"
        },
        {
            "bufferView" : 5,
            "componentType" : 5126,
            "count" : 24,
            "type" : "VEC2"
        },
        {
            "bufferView" : 6,
            "componentType" : 5123,
            "count" : 36,
            "type" : "SCALAR"
        }
    ],
    "bufferViews" : [
        {
            "buffer" : 0,
            "byteLength" : 396384,
            "byteOffset" : 0
        },
        {
            "buffer" : 0,
            "byteLength" : 396384,
            "byteOffset" : 396384
        },
        {
            "buffer" : 0,
            "byteLength" : 99096,
            "byteOffset" : 792768
        },
        {
            "buffer" : 0,
            "byteLength" : 288,
            "byteOffset" : 891864
        },
        {
            "buffer" : 0,
            "byteLength" : 288,
            "byteOffset" : 892152
        },
        {
            "buffer" : 0,
            "byteLength" : 192,
            "byteOffset" : 892440
        },
        {
            "buffer" : 0,
            "byteLength" : 72,
            "byteOffset" : 892632
        }
    ],
    "buffers" : [
        {
            "byteLength" : 892704,
            "uri" : "data:application/octet-stream;base64,"
        }
    ]
}
